<?xml version="1.0" encoding="utf-8"?>
<!-- Generator: Adobe Illustrator 27.0.0, SVG Export Plug-In . SVG Version: 6.00 Build 0)  -->
<svg version="1.1" id="Capa_1" xmlns="http://www.w3.org/2000/svg" xmlns:xlink="http://www.w3.org/1999/xlink" x="0px" y="0px"
	 viewBox="0 0 62.3 69.7" style="enable-background:new 0 0 62.3 69.7;" xml:space="preserve">
<style type="text/css">
	.st0{fill:#DAFFFB;}
</style>
<path class="st0" d="M53.3,47.4L52,47c0-0.1,0-0.1,0-0.2c0-3-4.4-5.7-11.5-7l0.7-0.6c2.5-2.2,4-5.3,4-8.7v-1h0.7
	c2.4,0,4.4-2,4.4-4.4V23c0-0.8-0.3-1.6-0.9-2.2c-0.3-0.3-0.7-0.6-1.2-0.7c0.1-0.4,0.2-0.7,0.2-1.1c0-0.9-0.3-1.7-0.9-2.3
	c0.3-0.5,0.5-1.1,0.5-1.7c0-1.3-0.8-2.5-2-3c0.1-0.2,0.1-0.5,0.1-0.7c0-1.7-1.2-3.1-2.8-3.3c0-0.1,0-0.2,0-0.4
	c0-1.8-1.5-3.3-3.3-3.3c-0.1,0-0.3,0-0.4,0C39.2,2.9,37.9,2,36.5,2c-0.9,0-1.7,0.4-2.4,1c-0.5-1.1-1.7-1.9-3-1.9s-2.5,0.8-3,1.9
	c-0.6-0.6-1.5-1-2.4-1c-1.5,0-2.8,1-3.2,2.4c-0.1,0-0.3,0-0.4,0c-1.8,0-3.3,1.5-3.3,3.3c0,0.1,0,0.3,0,0.4C17.3,8.2,16,9.6,16,11.3
	c0,0.2,0,0.5,0.1,0.7c-1.2,0.5-2,1.7-2,3c0,0.6,0.2,1.2,0.5,1.7c-0.6,0.6-0.9,1.4-0.9,2.3c0,0.4,0.1,0.8,0.2,1.1
	c-0.4,0.2-0.8,0.4-1.2,0.7c-0.6,0.6-0.9,1.4-0.9,2.2v2.1c0,2.4,2,4.4,4.4,4.4h0.7v1c0,3.3,1.5,6.5,4,8.7l0.7,0.6
	c-7.1,1.3-11.5,3.9-11.5,7c0,0.1,0,0.1,0,0.2l-1.3,0.4C3.9,49,0.6,53.5,0.6,58.7v9.6c0,0.3,0.2,0.5,0.5,0.5h60
	c0.3,0,0.5-0.2,0.5-0.5v-9.6C61.6,53.5,58.3,49,53.3,47.4z M47.8,21.1L47.8,21.1c0.4,0.1,0.7,0.3,0.9,0.5c0.4,0.4,0.6,0.9,0.6,1.5
	v2.1c0,1.9-1.5,3.4-3.4,3.4h-0.7v-2c0.1,0,0.3,0.1,0.4,0.1c0.8,0,1.4-0.6,1.4-1.4c0-0.3-0.2-0.5-0.5-0.5S46,25,46,25.3
	c0,0.2-0.2,0.4-0.4,0.4s-0.4-0.2-0.4-0.4l0,0v-0.6l0,0c0-0.6,0.5-1.1,1.1-1.1s1.1,0.5,1.1,1.1c0,0.3,0.2,0.5,0.5,0.5
	s0.5-0.2,0.5-0.5c0-1.2-1-2.1-2.1-2.1c-0.4,0-0.8,0.1-1.1,0.3c0-0.1,0-0.3,0.1-0.4c0,0,0,0,0.1,0c0.2,0,0.4,0,0.6-0.1l0,0
	c0.2-0.1,0.4-0.1,0.6-0.2h0.1c0.2-0.1,0.4-0.2,0.5-0.4c0,0,0.1,0,0.1-0.1C47.6,21.4,47.7,21.2,47.8,21.1z M16.9,25.3
	c0,0.2-0.2,0.4-0.4,0.4s-0.4-0.2-0.4-0.4c0-0.3-0.2-0.5-0.5-0.5s-0.5,0.2-0.5,0.5c0,0.8,0.6,1.4,1.4,1.4c0.1,0,0.3,0,0.4-0.1v2h-0.7
	c-1.9,0-3.4-1.5-3.4-3.4V23c0-0.5,0.2-1.1,0.6-1.5c0.3-0.3,0.6-0.4,0.9-0.5l0,0c0.1,0.2,0.3,0.3,0.4,0.5l0.1,0.1
	c0.2,0.1,0.3,0.2,0.5,0.3h0.1c0.2,0.1,0.4,0.2,0.6,0.2l0,0c0.2,0.1,0.4,0.1,0.6,0.1c0,0,0,0,0.1,0c0,0.1,0.1,0.3,0.1,0.4
	c-0.3-0.2-0.7-0.3-1.1-0.3c-1.2,0-2.1,1-2.1,2.1c0,0.3,0.2,0.5,0.5,0.5s0.5-0.2,0.5-0.5c0-0.6,0.5-1.1,1.1-1.1s1.1,0.5,1.1,1.1
	L16.9,25.3L16.9,25.3z M17.4,21.3c-0.1,0-0.1,0-0.1,0s-0.1,0-0.2,0c0,0-0.1,0-0.2,0c-0.8,0-1.6-0.4-2-1.1c-0.2-0.3-0.3-0.8-0.3-1.2
	c0-0.7,0.3-1.4,0.9-1.8c0.1-0.1,0.2-0.2,0.2-0.3c0-0.1,0-0.3-0.1-0.4c-0.3-0.4-0.5-0.9-0.5-1.5c0-1.1,0.7-2,1.7-2.2
	c0.1,0,0.3-0.1,0.3-0.3s0.1-0.3,0-0.4c-0.1-0.3-0.2-0.6-0.2-0.9c0-1.3,1-2.3,2.3-2.3h0.1c0.2,0,0.3-0.1,0.4-0.2S20,8.4,20,8.3
	c-0.1-0.2-0.1-0.4-0.1-0.7c0-1.3,1-2.3,2.3-2.3c0.2,0,0.4,0,0.6,0.1c0.1,0,0.3,0,0.4-0.1s0.2-0.2,0.2-0.4c0.2-1.1,1.1-2,2.3-2
	c0.9,0,1.7,0.5,2.1,1.3c0.1,0.2,0.3,0.3,0.5,0.3s0.4-0.2,0.4-0.4C28.9,2.9,29.9,2,31.1,2c1.2,0,2.2,0.9,2.3,2.1
	c0,0.2,0.2,0.4,0.4,0.4s0.4-0.1,0.5-0.3C34.7,3.5,35.5,3,36.5,3c1.2,0,2.1,0.9,2.3,2c0,0.1,0.1,0.3,0.2,0.4c0.1,0.1,0.3,0.1,0.4,0.1
	c0.2-0.1,0.4-0.1,0.6-0.1c1.3,0,2.3,1,2.3,2.3c0,0.2,0,0.5-0.1,0.7s0,0.3,0.1,0.5S42.5,9,42.7,9h0.1c1.3,0,2.3,1,2.3,2.3
	c0,0.3-0.1,0.6-0.2,0.9c-0.1,0.1,0,0.3,0,0.4s0.2,0.2,0.3,0.3c1,0.3,1.7,1.2,1.7,2.2c0,0.5-0.2,1.1-0.5,1.5
	c-0.1,0.1-0.1,0.2-0.1,0.4c0,0.1,0.1,0.3,0.2,0.3c0.6,0.4,0.9,1.1,0.9,1.8c0,0.4-0.1,0.8-0.3,1.2c-0.4,0.7-1.2,1.1-2.1,1.1h-0.1l0,0
	l-0.1-0.1c-0.1-0.1-0.3,0-0.4,0c-0.2,0.1-0.4,0.2-0.6,0.2c-0.7,0-1.3-0.6-1.3-1.3c0-0.3,0.1-0.7,0.4-0.9c0.1-0.2,0.2-0.4,0.1-0.6
	c0-0.1-0.2-0.2-0.3-0.3c-0.2-0.1-0.4-0.1-0.5,0c-0.2,0.2-0.5,0.3-0.8,0.3c-0.7,0-1.3-0.6-1.3-1.3c0.1-0.2,0-0.4-0.1-0.6
	c-0.2-0.1-0.4-0.2-0.6-0.1c-0.2,0.1-0.4,0.2-0.6,0.2c-0.7,0-1.3-0.6-1.3-1.4c0-0.2-0.1-0.4-0.3-0.5c-0.1,0-0.1,0-0.2,0
	c0,0,0,0-0.1,0s-0.2,0.1-0.3,0.1c-0.2,0.2-0.5,0.3-0.8,0.3c-0.6,0-1.2-0.4-1.3-1.1c0-0.2-0.2-0.4-0.4-0.4s-0.4,0-0.5,0.2
	c-0.5,0.7-1.7,0.8-2.2,0c-0.1-0.2-0.3-0.2-0.5-0.2s-0.3,0.2-0.4,0.4c-0.1,0.6-0.7,1-1.3,1c-0.3,0-0.6-0.1-0.9-0.3c0,0-0.2,0-0.4,0
	s-0.3,0.2-0.3,0.4c-0.2,0.8-1.3,1.2-2,0.7C25.5,16,25.3,16,25.1,16c-0.2,0.1-0.3,0.2-0.3,0.3c-0.2,0.6-0.7,0.9-1.2,0.9
	c-0.3,0-0.5-0.1-0.7-0.2s-0.4-0.1-0.6,0c-0.2,0.2-0.2,0.4-0.1,0.6s0.2,0.4,0.2,0.6c0,0.7-0.6,1.3-1.3,1.3c-0.2,0-0.3,0-0.5-0.1
	s-0.4,0-0.5,0.1S19.9,19.8,20,20c0,0.1,0,0.2,0,0.3c0,0.7-0.6,1.3-1.3,1.3c-0.2,0-0.3,0-0.4-0.1c0,0-0.1,0-0.1-0.1
	c-0.1,0-0.2-0.1-0.3-0.2C17.7,21.4,17.6,21.3,17.4,21.3z M21.6,38.5c-2.3-2-3.6-4.9-3.6-7.9v-1.5v-6v-0.3c0.1,0,0.1,0,0.2,0.1h0.1
	c0.1,0,0.2,0,0.4,0c1.2,0,2.3-1,2.3-2.2c1.3,0,2.4-1,2.4-2.3c0,0,0,0,0-0.1c0.9,0.1,1.8-0.3,2.2-1.1c1,0.4,2.2-0.1,2.7-1
	c0.3,0.1,0.6,0.2,1,0.2c0.8,0,1.5-0.4,1.9-1.1c0.8,0.5,1.9,0.5,2.6,0c0.4,0.7,1.1,1.1,1.9,1.1c0.3,0,0.5,0,0.8-0.1
	c0.3,1,1.5,1.7,2.6,1.5c0.2,1.1,1.3,1.9,2.4,1.8c0,0.1,0,0.3,0,0.4c0,1.3,1,2.3,2.3,2.3c0.1,0,0.3,0,0.4,0V23v6v1.5
	c0,3.1-1.3,5.9-3.6,7.9l-1.5,1.3l0,0l-0.5,0.4l0,0l0,0l-1.5,1.3c-0.2,0.2-0.4,0.3-0.6,0.4c-0.5,0.3-0.9,0.6-1.4,0.9
	c-0.2,0.1-0.4,0.2-0.6,0.3c-2.2,0.9-4.6,0.8-6.8,0c-0.2-0.1-0.4-0.2-0.6-0.3c-0.5-0.2-0.9-0.5-1.4-0.8l0,0l0,0
	c-0.2-0.2-0.4-0.3-0.6-0.5l-1.5-1.3l0,0l-0.4-0.4l0,0L21.6,38.5z M38.5,41.6v3.7c0,1.4-0.7,2.6-1.8,3.4c-1.6,1.1-3.6,1.7-5.6,1.7
	c-0.5,0-1,0-1.5-0.1c-1.5-0.2-2.9-0.8-4.1-1.6c-1.1-0.8-1.8-2.1-1.8-3.4v-3.7l0.7,0.6c0.2,0.2,0.4,0.3,0.6,0.5
	c0.5,0.4,1.1,0.7,1.6,1c0.2,0.1,0.4,0.2,0.6,0.3c1.2,0.5,2.5,0.7,3.8,0.7c1.3,0,2.5-0.2,3.8-0.7c0.2-0.1,0.4-0.2,0.7-0.3
	c0.6-0.3,1.1-0.6,1.6-1c0.2-0.2,0.4-0.3,0.6-0.5L38.5,41.6z M30.6,67.9H13.9v-4c0-0.3-0.2-0.5-0.5-0.5s-0.5,0.2-0.5,0.5v4H1.6v-9.1
	c0-4.7,3-8.9,7.6-10.3l1.2-0.4c0.2,0.5,0.5,1,0.9,1.4l0,0c0.1,0.1,0.3,0.3,0.4,0.4c0,0,0,0,0.1,0.1s0.3,0.3,0.5,0.4l0.1,0.1
	c0.2,0.1,0.3,0.2,0.5,0.3l0.1,0.1c0.2,0.1,0.3,0.2,0.5,0.3c0.1,0,0.1,0.1,0.2,0.1c0.2,0.1,0.4,0.2,0.6,0.3c0.1,0,0.1,0.1,0.2,0.1
	c0.2,0.1,0.4,0.2,0.6,0.3c0.1,0,0.1,0.1,0.2,0.1c0.2,0.1,0.4,0.2,0.6,0.3c0.1,0,0.2,0.1,0.2,0.1c0.2,0.1,0.5,0.2,0.7,0.2
	c0.1,0,0.2,0.1,0.2,0.1c0.3,0.1,0.5,0.2,0.8,0.2c0.1,0,0.1,0,0.2,0.1c0.3,0.1,0.6,0.2,0.9,0.2c0.1,0,0.1,0,0.2,0
	c0.7,0.2,1.4,0.3,2.1,0.5v7.7c-0.5,0.2-0.9,0.7-0.9,1.3v0.5c0,0.8,0.6,1.4,1.4,1.4l0,0c0.8,0,1.4-0.6,1.4-1.4v-0.5
	c0-0.6-0.4-1.1-0.9-1.3V54c2.4,0.4,5,0.6,7.7,0.7c0.2,0,0.4,0,0.6,0L30.6,67.9L30.6,67.9z M21.8,49.6c-0.3,0-0.5,0.2-0.5,0.5v0.8
	c-0.3-0.2-0.5-0.5-0.5-0.8c0-0.5,0.4-1,1-1c0.5,0,1,0.4,1,1c0,0.4-0.2,0.7-0.5,0.8v-0.8C22.3,49.8,22.1,49.6,21.8,49.6z M22.2,62.7
	v0.5c0,0.2-0.2,0.4-0.4,0.4l0,0c-0.2,0-0.4-0.2-0.4-0.4v-0.5c0-0.2,0.2-0.4,0.4-0.4S22.2,62.5,22.2,62.7z M31.1,53.6h-0.3
	c-0.2,0-0.5,0-0.8,0c-2.8-0.1-5.4-0.3-7.8-0.7V52c0.8-0.2,1.5-1,1.5-1.9c0-1.1-0.9-2-2-2s-2,0.9-2,2c0,0.9,0.6,1.7,1.5,1.9v0.7
	c-5.8-1.1-9.6-3.2-10.1-5.5c0-0.1-0.1-0.3-0.1-0.4c0-2.6,4.6-5,11.5-6.1l0.1,0.1v4.6c0,1.7,0.8,3.3,2.2,4.2c1.8,1.3,3.9,1.9,6.1,1.9
	c0.8,0,1.6-0.1,2.4-0.3c1.3-0.3,2.6-0.9,3.7-1.7c0.9-0.6,1.5-1.5,1.9-2.4c0.2-0.6,0.3-1.2,0.3-1.8v-4.6l0.1-0.1
	c6.9,1.1,11.4,3.6,11.4,6.1c0,0.2,0,0.3-0.1,0.4l0,0c-0.5,2.2-4.4,4.3-10.1,5.4V52c0.8-0.2,1.5-1,1.5-1.9c0-1.1-0.9-2-2-2
	s-2,0.9-2,2c0,0.9,0.6,1.7,1.5,1.9v0.9c-2.4,0.4-5,0.7-7.8,0.7l0,0C31.8,53.6,31.4,53.6,31.1,53.6L31.1,53.6z M40.4,49.6
	c-0.3,0-0.5,0.2-0.5,0.5v0.8c-0.3-0.2-0.5-0.5-0.5-0.8c0-0.5,0.4-1,1-1c0.5,0,1,0.4,1,1c0,0.4-0.2,0.7-0.5,0.8v-0.8
	C40.9,49.8,40.7,49.6,40.4,49.6z M40.8,62.7v0.5c0,0.2-0.2,0.4-0.4,0.4l0,0c-0.2,0-0.4-0.2-0.4-0.4v-0.5c0-0.2,0.2-0.4,0.4-0.4
	S40.8,62.5,40.8,62.7z M60.6,67.9H49.3v-4c0-0.3-0.2-0.5-0.5-0.5s-0.5,0.2-0.5,0.5v4H31.6V54.6c0.2,0,0.4,0,0.6,0
	c2.7,0,5.3-0.3,7.7-0.7v7.5c-0.5,0.2-0.9,0.7-0.9,1.3v0.5c0,0.8,0.6,1.4,1.4,1.4l0,0c0.8,0,1.4-0.6,1.4-1.4v-0.5
	c0-0.6-0.4-1.1-0.9-1.3v-7.7c0.1,0,0.3,0,0.4-0.1h0.1c0.3-0.1,0.5-0.1,0.8-0.2c0.1,0,0.2,0,0.3-0.1c0.3-0.1,0.5-0.1,0.7-0.2
	c0.1,0,0.2-0.1,0.4-0.1c0.2-0.1,0.5-0.1,0.7-0.2c0.1,0,0.2-0.1,0.3-0.1c0.2-0.1,0.4-0.1,0.7-0.2c0.1,0,0.2-0.1,0.3-0.1
	c0.2-0.1,0.4-0.2,0.7-0.2c0.1,0,0.2-0.1,0.2-0.1c0.2-0.1,0.4-0.2,0.7-0.3c0.1,0,0.1-0.1,0.2-0.1c0.2-0.1,0.4-0.2,0.6-0.3
	c0,0,0.1,0,0.1-0.1c0.2-0.1,0.4-0.2,0.6-0.3l0,0c1.6-0.9,2.6-2,3.1-3.1l1.2,0.4c4.5,1.4,7.6,5.6,7.6,10.3V67.9z"/>
</svg>
